# xmcd CD database file
# Copyright (C) 1997 Ti Kan
# 
# Track frame offsets:
#     150
#     138172
#     156500
#     171132
# 
# Disc length: 2540 seconds
# 
# Revision: 1
# Processed by: cddbd v1.4b41PL1 Copyright (c) Steve Scherf et al.
# Submitted via: DiscPlay 4.0.3
# 
DISCID=2e09ea04
DTITLE=John Williamson - Behind The Dream (Pipe Dream Bonus CD)
DYEAR=1900
DGENRE=
TTITLE0=Behind The Dream
TTITLE1=Old Farts In Caravan Parks
TTITLE2=All Good News
TTITLE3=Raining On The Rock
EXTD=
EXTT0=
EXTT1=
EXTT2=
EXTT3=
PLAYORDER=
